# xmcd
#
# Track frame offsets:
# 150
# 15148
# 32035
# 49624
# 65081
# 79419
# 92581
# 106769
# 124709
# 139353
# 153725
# 168399
# 179996
# 196046
# 212204
# 228911
# 240512
#
# Disc length: 3384 seconds
#
#
# Revision: 3
# Processed by: cddbd v1.5.2PL0 Copyright (c) Steve Scherf et al.
# Submitted via: FreeRIP 2.951 
#
DISCID=e40d3611
DTITLE=sertanejos - canto bebo e choro
DYEAR=2004
DGENRE=sertanejas
TTITLE0=joaquim e manuel - boate azul
TTITLE1=peao carreito e ze paulo - porta do mundo
TTITLE2=chico rey e parana - quem sera seu outro amor
TTITLE3=zdc e luciano - e o amor
TTITLE4=joao mineiro e marciano - ainda ontem chorei de saudade
TTITLE5=duduca e dalvan - dama de vermelho
TTITLE6=roberto e meirinho - a noite do nosso amor
TTITLE7=trio parada dura - ultimo adeus
TTITLE8=idas e voltas
TTITLE9=chrystian e ralf - noite de tortura
TTITLE10=leandro e leonardo - sublime renuncia
TTITLE11=juliano e jardel - sorriso mudo
TTITLE12=rene e ronaldo - fonte de desejos
TTITLE13=alan e aladim - dois passarinhos
TTITLE14=gian e giovane - roupa de lua de mel
TTITLE15=milionario e jose rico - 60 dias apaixonado
TTITLE16=teodoro e sampaio - vestido de seda
EXTD=seleção de músicas sertanejas, as raizes da música sertaneja\nalgumas consideradas raridades por fãs do estilo "mesa de bar"
EXTT0=
EXTT1=
EXTT2=
EXTT3=
EXTT4=
EXTT5=
EXTT6=
EXTT7=
EXTT8=
EXTT9=
EXTT10=
EXTT11=
EXTT12=
EXTT13=
EXTT14=
EXTT15=
EXTT16=
PLAYORDER=
